<svg xmlns="http://www.w3.org/2000/svg" viewBox="0 0 1920 1080" width="1920" height="1080">
  <defs>
    <!-- Day sky gradient -->
    <linearGradient id="daySky" x1="0" y1="0" x2="0" y2="1">
      <stop offset="0%" stop-color="#4FA4F4"/>
      <stop offset="60%" stop-color="#87CEEB"/>
      <stop offset="100%" stop-color="#B8E4F9"/>
    </linearGradient>
    <!-- Night sky gradient -->
    <linearGradient id="nightSky" x1="0" y1="0" x2="0" y2="1">
      <stop offset="0%" stop-color="#0B1026"/>
      <stop offset="50%" stop-color="#1A1A4E"/>
      <stop offset="100%" stop-color="#2D2D6B"/>
    </linearGradient>
    <!-- Transition blend -->
    <linearGradient id="blend" x1="0.42" y1="0" x2="0.58" y2="0">
      <stop offset="0%" stop-color="white"/>
      <stop offset="100%" stop-color="black"/>
    </linearGradient>
    <mask id="dayMask">
      <rect x="0" y="0" width="1920" height="1080" fill="url(#blend)"/>
    </mask>
    <mask id="nightMask">
      <rect x="0" y="0" width="1920" height="1080" fill="url(#blend)"/>
    </mask>
    <!-- Sun glow -->
    <radialGradient id="sunGlow" cx="0.5" cy="0.5" r="0.5">
      <stop offset="0%" stop-color="#FFF7B0" stop-opacity="0.8"/>
      <stop offset="40%" stop-color="#FFE066" stop-opacity="0.3"/>
      <stop offset="100%" stop-color="#FFE066" stop-opacity="0"/>
    </radialGradient>
    <!-- Moon glow -->
    <radialGradient id="moonGlow" cx="0.5" cy="0.5" r="0.5">
      <stop offset="0%" stop-color="#E8E8FF" stop-opacity="0.6"/>
      <stop offset="40%" stop-color="#C8C8FF" stop-opacity="0.2"/>
      <stop offset="100%" stop-color="#C8C8FF" stop-opacity="0"/>
    </radialGradient>
    <!-- Grass day gradient -->
    <linearGradient id="grassDay" x1="0" y1="0" x2="0" y2="1">
      <stop offset="0%" stop-color="#5B8C2A"/>
      <stop offset="100%" stop-color="#3D6B1E"/>
    </linearGradient>
    <!-- Grass night gradient -->
    <linearGradient id="grassNight" x1="0" y1="0" x2="0" y2="1">
      <stop offset="0%" stop-color="#1E3A10"/>
      <stop offset="100%" stop-color="#142A0A"/>
    </linearGradient>
    <!-- Dirt gradient -->
    <linearGradient id="dirtDay" x1="0" y1="0" x2="0" y2="1">
      <stop offset="0%" stop-color="#8B6914"/>
      <stop offset="100%" stop-color="#6B4F10"/>
    </linearGradient>
    <linearGradient id="dirtNight" x1="0" y1="0" x2="0" y2="1">
      <stop offset="0%" stop-color="#3A2D0A"/>
      <stop offset="100%" stop-color="#2A1F06"/>
    </linearGradient>
    <!-- Text shadow filter -->
    <filter id="textShadow" x="-5%" y="-5%" width="110%" height="110%">
      <feDropShadow dx="0" dy="4" stdDeviation="8" flood-color="#000000" flood-opacity="0.5"/>
    </filter>
    <filter id="subtleShadow" x="-5%" y="-5%" width="110%" height="110%">
      <feDropShadow dx="0" dy="2" stdDeviation="4" flood-color="#000000" flood-opacity="0.4"/>
    </filter>
    <!-- Star twinkle -->
    <filter id="starGlow">
      <feGaussianBlur stdDeviation="1.5" result="blur"/>
      <feMerge>
        <feMergeNode in="blur"/>
        <feMergeNode in="SourceGraphic"/>
      </feMerge>
    </filter>
    <!-- Pixelated block style -->
    <pattern id="gridPattern" width="16" height="16" patternUnits="userSpaceOnUse">
      <rect width="16" height="16" fill="none" stroke="rgba(0,0,0,0.05)" stroke-width="0.5"/>
    </pattern>
  </defs>

  <!-- ==================== NIGHT SIDE (RIGHT) ==================== -->
  <rect x="0" y="0" width="1920" height="1080" fill="url(#nightSky)"/>

  <!-- Stars -->
  <g filter="url(#starGlow)" opacity="0.9">
    <circle cx="1100" cy="80" r="2" fill="white"/>
    <circle cx="1250" cy="150" r="1.5" fill="white"/>
    <circle cx="1400" cy="60" r="2.5" fill="white"/>
    <circle cx="1550" cy="200" r="1.5" fill="white"/>
    <circle cx="1700" cy="100" r="2" fill="white"/>
    <circle cx="1800" cy="250" r="1.5" fill="white"/>
    <circle cx="1150" cy="250" r="1" fill="white"/>
    <circle cx="1300" cy="300" r="2" fill="white"/>
    <circle cx="1600" cy="50" r="1.5" fill="white"/>
    <circle cx="1750" cy="180" r="2" fill="white"/>
    <circle cx="1850" cy="80" r="1" fill="white"/>
    <circle cx="1050" cy="180" r="1.5" fill="white"/>
    <circle cx="1480" cy="130" r="2" fill="white"/>
    <circle cx="1650" cy="280" r="1" fill="white"/>
    <circle cx="1200" cy="350" r="1.5" fill="white"/>
    <circle cx="1500" cy="320" r="2" fill="white"/>
    <circle cx="1350" cy="220" r="1" fill="white"/>
    <circle cx="1900" cy="150" r="1.5" fill="white"/>
    <circle cx="1680" cy="350" r="2" fill="white"/>
    <circle cx="1820" cy="320" r="1" fill="white"/>
  </g>

  <!-- Moon -->
  <circle cx="1550" cy="200" r="120" fill="url(#moonGlow)" opacity="0.5"/>
  <circle cx="1550" cy="200" r="55" fill="#E8E8E0"/>
  <circle cx="1570" cy="185" r="55" fill="url(#nightSky)"/> <!-- crescent cutout -->
  <circle cx="1550" cy="200" r="55" fill="#E8E8E0" opacity="0.15"/> <!-- subtle full circle overlay -->
  <!-- Crescent moon -->
  <clipPath id="moonClip">
    <circle cx="1550" cy="200" r="55"/>
  </clipPath>
  <g clip-path="url(#moonClip)">
    <circle cx="1550" cy="200" r="55" fill="#E8E8E0"/>
    <circle cx="1580" cy="185" r="50" fill="url(#nightSky)"/>
  </g>

  <!-- Night ground -->
  <!-- Dirt layer -->
  <rect x="0" y="780" width="1920" height="300" fill="url(#dirtNight)"/>
  <!-- Grass layer -->
  <rect x="0" y="750" width="1920" height="40" fill="url(#grassNight)"/>
  <!-- Grass pixel top edge -->
  <g fill="#1E3A10">
    <rect x="0" y="740" width="16" height="16"/>
    <rect x="32" y="744" width="16" height="12"/>
    <rect x="64" y="738" width="16" height="18"/>
    <rect x="96" y="742" width="16" height="14"/>
    <rect x="128" y="736" width="16" height="20"/>
    <rect x="160" y="744" width="16" height="12"/>
    <rect x="192" y="740" width="16" height="16"/>
    <rect x="224" y="738" width="16" height="18"/>
    <rect x="256" y="742" width="16" height="14"/>
    <rect x="288" y="736" width="16" height="20"/>
    <rect x="320" y="740" width="16" height="16"/>
    <rect x="352" y="744" width="16" height="12"/>
    <rect x="384" y="738" width="16" height="18"/>
    <rect x="416" y="742" width="16" height="14"/>
    <rect x="448" y="736" width="16" height="20"/>
    <rect x="480" y="740" width="16" height="16"/>
    <rect x="512" y="744" width="16" height="12"/>
    <rect x="544" y="738" width="16" height="18"/>
    <rect x="576" y="742" width="16" height="14"/>
    <rect x="608" y="736" width="16" height="20"/>
    <rect x="640" y="740" width="16" height="16"/>
    <rect x="672" y="738" width="16" height="18"/>
    <rect x="704" y="742" width="16" height="14"/>
    <rect x="736" y="744" width="16" height="12"/>
    <rect x="768" y="738" width="16" height="18"/>
    <rect x="800" y="736" width="16" height="20"/>
    <rect x="832" y="742" width="16" height="14"/>
    <rect x="864" y="740" width="16" height="16"/>
    <rect x="896" y="744" width="16" height="12"/>
    <rect x="928" y="738" width="16" height="18"/>
    <rect x="960" y="736" width="16" height="20"/>
    <rect x="992" y="742" width="16" height="14"/>
    <rect x="1024" y="740" width="16" height="16"/>
    <rect x="1056" y="738" width="16" height="18"/>
    <rect x="1088" y="744" width="16" height="12"/>
    <rect x="1120" y="736" width="16" height="20"/>
    <rect x="1152" y="740" width="16" height="16"/>
    <rect x="1184" y="742" width="16" height="14"/>
    <rect x="1216" y="738" width="16" height="18"/>
    <rect x="1248" y="744" width="16" height="12"/>
    <rect x="1280" y="736" width="16" height="20"/>
    <rect x="1312" y="740" width="16" height="16"/>
    <rect x="1344" y="742" width="16" height="14"/>
    <rect x="1376" y="738" width="16" height="18"/>
    <rect x="1408" y="744" width="16" height="12"/>
    <rect x="1440" y="736" width="16" height="20"/>
    <rect x="1472" y="740" width="16" height="16"/>
    <rect x="1504" y="738" width="16" height="18"/>
    <rect x="1536" y="742" width="16" height="14"/>
    <rect x="1568" y="740" width="16" height="16"/>
    <rect x="1600" y="736" width="16" height="20"/>
    <rect x="1632" y="744" width="16" height="12"/>
    <rect x="1664" y="738" width="16" height="18"/>
    <rect x="1696" y="742" width="16" height="14"/>
    <rect x="1728" y="740" width="16" height="16"/>
    <rect x="1760" y="736" width="16" height="20"/>
    <rect x="1792" y="744" width="16" height="12"/>
    <rect x="1824" y="738" width="16" height="18"/>
    <rect x="1856" y="742" width="16" height="14"/>
    <rect x="1888" y="740" width="16" height="16"/>
  </g>

  <!-- ==================== DAY SIDE (LEFT) - overlaid with mask ==================== -->
  <g mask="url(#dayMask)">
    <rect x="0" y="0" width="1920" height="1080" fill="url(#daySky)"/>

    <!-- Clouds -->
    <g opacity="0.9">
      <!-- Cloud 1 -->
      <g fill="white">
        <rect x="100" y="120" width="48" height="16" rx="2"/>
        <rect x="84" y="136" width="80" height="16" rx="2"/>
        <rect x="92" y="152" width="64" height="16" rx="2"/>
      </g>
      <!-- Cloud 2 -->
      <g fill="white" opacity="0.8">
        <rect x="400" y="200" width="64" height="16" rx="2"/>
        <rect x="384" y="216" width="96" height="16" rx="2"/>
        <rect x="392" y="232" width="80" height="16" rx="2"/>
      </g>
      <!-- Cloud 3 -->
      <g fill="white" opacity="0.85">
        <rect x="650" y="100" width="48" height="16" rx="2"/>
        <rect x="634" y="116" width="80" height="16" rx="2"/>
        <rect x="642" y="132" width="64" height="16" rx="2"/>
      </g>
    </g>

    <!-- Sun -->
    <circle cx="300" cy="200" r="160" fill="url(#sunGlow)"/>
    <circle cx="300" cy="200" r="60" fill="#FFE066"/>
    <circle cx="300" cy="200" r="50" fill="#FFF176"/>

    <!-- Day ground -->
    <rect x="0" y="780" width="1920" height="300" fill="url(#dirtDay)"/>
    <rect x="0" y="750" width="1920" height="40" fill="url(#grassDay)"/>
    <!-- Grass pixel top edge -->
    <g fill="#5B8C2A">
      <rect x="0" y="740" width="16" height="16"/>
      <rect x="32" y="744" width="16" height="12"/>
      <rect x="64" y="738" width="16" height="18"/>
      <rect x="96" y="742" width="16" height="14"/>
      <rect x="128" y="736" width="16" height="20"/>
      <rect x="160" y="744" width="16" height="12"/>
      <rect x="192" y="740" width="16" height="16"/>
      <rect x="224" y="738" width="16" height="18"/>
      <rect x="256" y="742" width="16" height="14"/>
      <rect x="288" y="736" width="16" height="20"/>
      <rect x="320" y="740" width="16" height="16"/>
      <rect x="352" y="744" width="16" height="12"/>
      <rect x="384" y="738" width="16" height="18"/>
      <rect x="416" y="742" width="16" height="14"/>
      <rect x="448" y="736" width="16" height="20"/>
      <rect x="480" y="740" width="16" height="16"/>
      <rect x="512" y="744" width="16" height="12"/>
      <rect x="544" y="738" width="16" height="18"/>
      <rect x="576" y="742" width="16" height="14"/>
      <rect x="608" y="736" width="16" height="20"/>
      <rect x="640" y="740" width="16" height="16"/>
      <rect x="672" y="738" width="16" height="18"/>
      <rect x="704" y="742" width="16" height="14"/>
      <rect x="736" y="744" width="16" height="12"/>
      <rect x="768" y="738" width="16" height="18"/>
      <rect x="800" y="736" width="16" height="20"/>
      <rect x="832" y="742" width="16" height="14"/>
      <rect x="864" y="740" width="16" height="16"/>
      <rect x="896" y="744" width="16" height="12"/>
      <rect x="928" y="738" width="16" height="18"/>
      <rect x="960" y="736" width="16" height="20"/>
      <rect x="992" y="742" width="16" height="14"/>
      <rect x="1024" y="740" width="16" height="16"/>
      <rect x="1056" y="738" width="16" height="18"/>
      <rect x="1088" y="744" width="16" height="12"/>
      <rect x="1120" y="736" width="16" height="20"/>
      <rect x="1152" y="740" width="16" height="16"/>
      <rect x="1184" y="742" width="16" height="14"/>
      <rect x="1216" y="738" width="16" height="18"/>
      <rect x="1248" y="744" width="16" height="12"/>
      <rect x="1280" y="736" width="16" height="20"/>
      <rect x="1312" y="740" width="16" height="16"/>
      <rect x="1344" y="742" width="16" height="14"/>
      <rect x="1376" y="738" width="16" height="18"/>
      <rect x="1408" y="744" width="16" height="12"/>
      <rect x="1440" y="736" width="16" height="20"/>
      <rect x="1472" y="740" width="16" height="16"/>
      <rect x="1504" y="738" width="16" height="18"/>
      <rect x="1536" y="742" width="16" height="14"/>
      <rect x="1568" y="740" width="16" height="16"/>
      <rect x="1600" y="736" width="16" height="20"/>
      <rect x="1632" y="744" width="16" height="12"/>
      <rect x="1664" y="738" width="16" height="18"/>
      <rect x="1696" y="742" width="16" height="14"/>
      <rect x="1728" y="740" width="16" height="16"/>
      <rect x="1760" y="736" width="16" height="20"/>
      <rect x="1792" y="744" width="16" height="12"/>
      <rect x="1824" y="738" width="16" height="18"/>
      <rect x="1856" y="742" width="16" height="14"/>
      <rect x="1888" y="740" width="16" height="16"/>
    </g>
  </g>

  <!-- ==================== DIVIDER LINE ==================== -->
  <line x1="960" y1="0" x2="960" y2="1080" stroke="rgba(255,255,255,0.15)" stroke-width="3"/>

  <!-- ==================== PIXELATED TREE (Day side) ==================== -->
  <g>
    <!-- Trunk -->
    <rect x="700" y="650" width="16" height="96" fill="#6B4226"/>
    <rect x="716" y="650" width="16" height="96" fill="#7A4E2D"/>
    <!-- Leaves -->
    <g fill="#2E7D32">
      <rect x="668" y="618" width="80" height="16"/>
      <rect x="676" y="602" width="64" height="16"/>
      <rect x="684" y="586" width="48" height="16"/>
      <rect x="668" y="634" width="80" height="16"/>
      <rect x="676" y="570" width="64" height="16"/>
    </g>
    <g fill="#388E3C" opacity="0.7">
      <rect x="684" y="602" width="32" height="16"/>
      <rect x="676" y="618" width="48" height="16"/>
    </g>
  </g>

  <!-- ==================== PIXELATED TREE (Night side, darker) ==================== -->
  <g>
    <!-- Trunk -->
    <rect x="1200" y="650" width="16" height="96" fill="#3A2213"/>
    <rect x="1216" y="650" width="16" height="96" fill="#442916"/>
    <!-- Leaves -->
    <g fill="#1B4D1E">
      <rect x="1168" y="618" width="80" height="16"/>
      <rect x="1176" y="602" width="64" height="16"/>
      <rect x="1184" y="586" width="48" height="16"/>
      <rect x="1168" y="634" width="80" height="16"/>
      <rect x="1176" y="570" width="64" height="16"/>
    </g>
    <g fill="#225526" opacity="0.7">
      <rect x="1184" y="602" width="32" height="16"/>
      <rect x="1176" y="618" width="48" height="16"/>
    </g>
  </g>

  <!-- ==================== CLOCK ICON (center) ==================== -->
  <g transform="translate(960, 420)">
    <!-- Clock body -->
    <circle cx="0" cy="0" r="52" fill="rgba(0,0,0,0.35)"/>
    <circle cx="0" cy="0" r="48" fill="none" stroke="white" stroke-width="4"/>
    <!-- Clock face -->
    <circle cx="0" cy="0" r="44" fill="rgba(255,255,255,0.1)"/>
    <!-- Hour markers -->
    <line x1="0" y1="-40" x2="0" y2="-34" stroke="white" stroke-width="3"/>
    <line x1="0" y1="40" x2="0" y2="34" stroke="white" stroke-width="3"/>
    <line x1="-40" y1="0" x2="-34" y2="0" stroke="white" stroke-width="3"/>
    <line x1="40" y1="0" x2="34" y2="0" stroke="white" stroke-width="3"/>
    <!-- Clock hands -->
    <line x1="0" y1="0" x2="0" y2="-28" stroke="white" stroke-width="3" stroke-linecap="round"/>
    <line x1="0" y1="0" x2="20" y2="-12" stroke="white" stroke-width="2.5" stroke-linecap="round"/>
    <!-- Center dot -->
    <circle cx="0" cy="0" r="4" fill="white"/>
    <!-- Arrows around clock (circular) -->
    <g stroke="#FFE066" stroke-width="2.5" fill="none" opacity="0.9">
      <path d="M -60,-10 A 60,60 0 0,1 10,-60" stroke-linecap="round"/>
      <polygon points="10,-60 4,-50 16,-52" fill="#FFE066" stroke="none"/>
    </g>
    <g stroke="#C8C8FF" stroke-width="2.5" fill="none" opacity="0.9">
      <path d="M 60,10 A 60,60 0 0,1 -10,60" stroke-linecap="round"/>
      <polygon points="-10,60 -4,50 -16,52" fill="#C8C8FF" stroke="none"/>
    </g>
  </g>

  <!-- ==================== TITLE TEXT ==================== -->
  <text x="960" y="560" text-anchor="middle" font-family="'Segoe UI', Arial, sans-serif" font-size="72" font-weight="bold" fill="white" filter="url(#textShadow)">
    Custom Day/Night Mod
  </text>

  <!-- Subtitle -->
  <text x="960" y="610" text-anchor="middle" font-family="'Segoe UI', Arial, sans-serif" font-size="28" fill="rgba(255,255,255,0.85)" filter="url(#subtleShadow)">
    Take full control of Minecraft's day/night cycle
  </text>

  <!-- ==================== FEATURE PILLS ==================== -->
  <!-- Pill: Server-Side -->
  <g transform="translate(570, 660)">
    <rect x="0" y="0" width="180" height="40" rx="20" fill="rgba(0,0,0,0.4)"/>
    <rect x="0" y="0" width="180" height="40" rx="20" fill="none" stroke="rgba(255,255,255,0.3)" stroke-width="1"/>
    <text x="90" y="26" text-anchor="middle" font-family="'Segoe UI', Arial, sans-serif" font-size="16" fill="white" font-weight="600">🖥️ Server-Side Only</text>
  </g>
  <!-- Pill: Fabric -->
  <g transform="translate(770, 660)">
    <rect x="0" y="0" width="130" height="40" rx="20" fill="rgba(0,0,0,0.4)"/>
    <rect x="0" y="0" width="130" height="40" rx="20" fill="none" stroke="rgba(255,255,255,0.3)" stroke-width="1"/>
    <text x="65" y="26" text-anchor="middle" font-family="'Segoe UI', Arial, sans-serif" font-size="16" fill="white" font-weight="600">🧵 Fabric</text>
  </g>
  <!-- Pill: Hot Reload -->
  <g transform="translate(920, 660)">
    <rect x="0" y="0" width="160" height="40" rx="20" fill="rgba(0,0,0,0.4)"/>
    <rect x="0" y="0" width="160" height="40" rx="20" fill="none" stroke="rgba(255,255,255,0.3)" stroke-width="1"/>
    <text x="80" y="26" text-anchor="middle" font-family="'Segoe UI', Arial, sans-serif" font-size="16" fill="white" font-weight="600">🔄 Hot Reload</text>
  </g>
  <!-- Pill: Vanilla Clients -->
  <g transform="translate(1100, 660)">
    <rect x="0" y="0" width="190" height="40" rx="20" fill="rgba(0,0,0,0.4)"/>
    <rect x="0" y="0" width="190" height="40" rx="20" fill="none" stroke="rgba(255,255,255,0.3)" stroke-width="1"/>
    <text x="95" y="26" text-anchor="middle" font-family="'Segoe UI', Arial, sans-serif" font-size="16" fill="white" font-weight="600">✅ Vanilla Clients</text>
  </g>

  <!-- ==================== VERSION BADGE ==================== -->
  <g transform="translate(1720, 30)">
    <rect x="0" y="0" width="170" height="36" rx="18" fill="rgba(0,0,0,0.5)"/>
    <text x="85" y="24" text-anchor="middle" font-family="'Segoe UI', Arial, sans-serif" font-size="15" fill="white" font-weight="600">MC 1.21.11 · v2.0.0</text>
  </g>
</svg>